<?xml version="1.0"?>
<svg xmlns="http://www.w3.org/2000/svg" xmlns:xlink="http://www.w3.org/1999/xlink" version="1.1" width="320px" height="320px" viewBox="0 0 320 320"><rect x="0" y="0" width="320" height="320" fill="#ffffff" fill-opacity="1"/><path fill="#000000" fill-opacity="1" d="M11,11L74,11L74,20L11,20ZM83,11L110,11L110,20L83,20ZM119,11L137,11L137,20L119,20ZM146,11L164,11L164,20L146,20ZM200,11L236,11L236,20L200,20ZM245,11L308,11L308,20L245,20ZM11,20L20,20L20,29L11,29ZM65,20L74,20L74,29L65,29ZM83,20L110,20L110,29L83,29ZM146,20L155,20L155,29L146,29ZM164,20L173,20L173,29L164,29ZM191,20L209,20L209,29L191,29ZM227,20L236,20L236,29L227,29ZM245,20L254,20L254,29L245,29ZM299,20L308,20L308,29L299,29ZM11,29L20,29L20,38L11,38ZM29,29L56,29L56,38L29,38ZM65,29L74,29L74,38L65,38ZM83,29L92,29L92,38L83,38ZM101,29L119,29L119,38L101,38ZM128,29L137,29L137,38L128,38ZM182,29L200,29L200,38L182,38ZM209,29L236,29L236,38L209,38ZM245,29L254,29L254,38L245,38ZM263,29L290,29L290,38L263,38ZM299,29L308,29L308,38L299,38ZM11,38L20,38L20,47L11,47ZM29,38L56,38L56,47L29,47ZM65,38L74,38L74,47L65,47ZM83,38L101,38L101,47L83,47ZM110,38L119,38L119,47L110,47ZM128,38L164,38L164,47L128,47ZM173,38L182,38L182,47L173,47ZM200,38L218,38L218,47L200,47ZM245,38L254,38L254,47L245,47ZM263,38L290,38L290,47L263,47ZM299,38L308,38L308,47L299,47ZM11,47L20,47L20,56L11,56ZM29,47L56,47L56,56L29,56ZM65,47L74,47L74,56L65,56ZM128,47L146,47L146,56L128,56ZM173,47L200,47L200,56L173,56ZM209,47L236,47L236,56L209,56ZM245,47L254,47L254,56L245,56ZM263,47L290,47L290,56L263,56ZM299,47L308,47L308,56L299,56ZM11,56L20,56L20,65L11,65ZM65,56L74,56L74,65L65,65ZM83,56L92,56L92,65L83,65ZM110,56L128,56L128,65L110,65ZM155,56L173,56L173,65L155,65ZM182,56L191,56L191,65L182,65ZM200,56L218,56L218,65L200,65ZM245,56L254,56L254,65L245,65ZM299,56L308,56L308,65L299,65ZM11,65L74,65L74,74L11,74ZM83,65L92,65L92,74L83,74ZM101,65L110,65L110,74L101,74ZM119,65L128,65L128,74L119,74ZM137,65L146,65L146,74L137,74ZM155,65L164,65L164,74L155,74ZM173,65L182,65L182,74L173,74ZM191,65L200,65L200,74L191,74ZM209,65L218,65L218,74L209,74ZM227,65L236,65L236,74L227,74ZM245,65L308,65L308,74L245,74ZM92,74L101,74L101,83L92,83ZM119,74L137,74L137,83L119,83ZM182,74L200,74L200,83L182,83ZM209,74L218,74L218,83L209,83ZM227,74L236,74L236,83L227,83ZM11,83L29,83L29,92L11,92ZM47,83L74,83L74,92L47,92ZM110,83L119,83L119,92L110,92ZM128,83L146,83L146,92L128,92ZM155,83L164,83L164,92L155,92ZM173,83L191,83L191,92L173,92ZM200,83L218,83L218,92L200,92ZM227,83L236,83L236,92L227,92ZM254,83L263,83L263,92L254,92ZM272,83L308,83L308,92L272,92ZM11,92L20,92L20,101L11,101ZM29,92L47,92L47,101L29,101ZM56,92L65,92L65,101L56,101ZM74,92L110,92L110,101L74,101ZM119,92L137,92L137,101L119,101ZM146,92L155,92L155,101L146,101ZM191,92L200,92L200,101L191,101ZM227,92L245,92L245,101L227,101ZM254,92L272,92L272,101L254,101ZM281,92L299,92L299,101L281,101ZM11,101L56,101L56,110L11,110ZM65,101L92,101L92,110L65,110ZM110,101L155,101L155,110L110,110ZM173,101L182,101L182,110L173,110ZM191,101L200,101L200,110L191,110ZM218,101L236,101L236,110L218,110ZM254,101L263,101L263,110L254,110ZM272,101L290,101L290,110L272,110ZM299,101L308,101L308,110L299,110ZM20,110L29,110L29,119L20,119ZM74,110L92,110L92,119L74,119ZM101,110L119,110L119,119L101,119ZM164,110L173,110L173,119L164,119ZM182,110L200,110L200,119L182,119ZM209,110L236,110L236,119L209,119ZM245,110L254,110L254,119L245,119ZM263,110L281,110L281,119L263,119ZM290,110L308,110L308,119L290,119ZM20,119L29,119L29,128L20,128ZM47,119L56,119L56,128L47,128ZM65,119L92,119L92,128L65,128ZM101,119L110,119L110,128L101,128ZM119,119L128,119L128,128L119,128ZM137,119L146,119L146,128L137,128ZM155,119L191,119L191,128L155,128ZM200,119L218,119L218,128L200,128ZM227,119L263,119L263,128L227,128ZM281,119L308,119L308,128L281,128ZM11,128L20,128L20,137L11,137ZM29,128L38,128L38,137L29,137ZM47,128L65,128L65,137L47,137ZM74,128L101,128L101,137L74,137ZM128,128L146,128L146,137L128,137ZM173,128L200,128L200,137L173,137ZM209,128L263,128L263,137L209,137ZM281,128L308,128L308,137L281,137ZM11,137L29,137L29,146L11,146ZM38,137L47,137L47,146L38,146ZM56,137L74,137L74,146L56,146ZM83,137L92,137L92,146L83,146ZM101,137L110,137L110,146L101,146ZM128,137L146,137L146,146L128,146ZM155,137L164,137L164,146L155,146ZM173,137L191,137L191,146L173,146ZM236,137L245,137L245,146L236,146ZM254,137L263,137L263,146L254,146ZM281,137L299,137L299,146L281,146ZM11,146L20,146L20,155L11,155ZM29,146L38,146L38,155L29,155ZM74,146L101,146L101,155L74,155ZM119,146L137,146L137,155L119,155ZM182,146L200,146L200,155L182,155ZM209,146L227,146L227,155L209,155ZM245,146L254,146L254,155L245,155ZM263,146L272,146L272,155L263,155ZM11,155L47,155L47,164L11,164ZM56,155L74,155L74,164L56,164ZM110,155L119,155L119,164L110,164ZM128,155L137,155L137,164L128,164ZM173,155L200,155L200,164L173,164ZM209,155L218,155L218,164L209,164ZM227,155L236,155L236,164L227,164ZM263,155L272,155L272,164L263,164ZM281,155L290,155L290,164L281,164ZM299,155L308,155L308,164L299,164ZM11,164L29,164L29,173L11,173ZM47,164L56,164L56,173L47,173ZM92,164L101,164L101,173L92,173ZM119,164L146,164L146,173L119,173ZM155,164L164,164L164,173L155,173ZM182,164L191,164L191,173L182,173ZM209,164L218,164L218,173L209,173ZM245,164L254,164L254,173L245,173ZM281,164L290,164L290,173L281,173ZM299,164L308,164L308,173L299,173ZM11,173L20,173L20,182L11,182ZM38,173L47,173L47,182L38,182ZM56,173L74,173L74,182L56,182ZM83,173L101,173L101,182L83,182ZM110,173L164,173L164,182L110,182ZM173,173L182,173L182,182L173,182ZM209,173L227,173L227,182L209,182ZM236,173L245,173L245,182L236,182ZM254,173L281,173L281,182L254,182ZM299,173L308,173L308,182L299,182ZM20,182L56,182L56,191L20,191ZM83,182L92,182L92,191L83,191ZM101,182L119,182L119,191L101,191ZM146,182L155,182L155,191L146,191ZM191,182L200,182L200,191L191,191ZM227,182L236,182L236,191L227,191ZM245,182L254,182L254,191L245,191ZM263,182L290,182L290,191L263,191ZM47,191L56,191L56,200L47,200ZM65,191L74,191L74,200L65,200ZM92,191L101,191L101,200L92,200ZM119,191L137,191L137,200L119,200ZM182,191L209,191L209,200L182,200ZM299,191L308,191L308,200L299,200ZM11,200L29,200L29,209L11,209ZM38,200L65,200L65,209L38,209ZM83,200L110,200L110,209L83,209ZM128,200L137,200L137,209L128,209ZM173,200L182,200L182,209L173,209ZM191,200L200,200L200,209L191,209ZM272,200L290,200L290,209L272,209ZM29,209L38,209L38,218L29,218ZM47,209L74,209L74,218L47,218ZM146,209L164,209L164,218L146,218ZM173,209L191,209L191,218L173,218ZM209,209L227,209L227,218L209,218ZM236,209L245,209L245,218L236,218ZM254,209L263,209L263,218L254,218ZM272,209L281,209L281,218L272,218ZM290,209L308,209L308,218L290,218ZM56,218L65,218L65,227L56,227ZM92,218L101,218L101,227L92,227ZM119,218L128,218L128,227L119,227ZM155,218L164,218L164,227L155,227ZM200,218L218,218L218,227L200,227ZM227,218L236,218L236,227L227,227ZM245,218L272,218L272,227L245,227ZM281,218L308,218L308,227L281,227ZM11,227L29,227L29,236L11,236ZM38,227L47,227L47,236L38,236ZM65,227L83,227L83,236L65,236ZM110,227L119,227L119,236L110,236ZM128,227L146,227L146,236L128,236ZM173,227L200,227L200,236L173,236ZM227,227L272,227L272,236L227,236ZM290,227L308,227L308,236L290,236ZM83,236L92,236L92,245L83,245ZM101,236L110,236L110,245L101,245ZM119,236L128,236L128,245L119,245ZM137,236L155,236L155,245L137,245ZM191,236L200,236L200,245L191,245ZM218,236L236,236L236,245L218,245ZM263,236L308,236L308,245L263,245ZM11,245L74,245L74,254L11,254ZM110,245L146,245L146,254L110,254ZM173,245L182,245L182,254L173,254ZM191,245L200,245L200,254L191,254ZM218,245L236,245L236,254L218,254ZM245,245L254,245L254,254L245,254ZM263,245L299,245L299,254L263,254ZM11,254L20,254L20,263L11,263ZM65,254L74,254L74,263L65,263ZM83,254L101,254L101,263L83,263ZM110,254L119,254L119,263L110,263ZM128,254L137,254L137,263L128,263ZM155,254L200,254L200,263L155,263ZM209,254L218,254L218,263L209,263ZM227,254L236,254L236,263L227,263ZM263,254L272,254L272,263L263,263ZM281,254L290,254L290,263L281,263ZM299,254L308,254L308,263L299,263ZM11,263L20,263L20,272L11,272ZM29,263L56,263L56,272L29,272ZM65,263L74,263L74,272L65,272ZM83,263L92,263L92,272L83,272ZM119,263L137,263L137,272L119,272ZM155,263L164,263L164,272L155,272ZM182,263L191,263L191,272L182,272ZM200,263L281,263L281,272L200,272ZM290,263L299,263L299,272L290,272ZM11,272L20,272L20,281L11,281ZM29,272L56,272L56,281L29,281ZM65,272L74,272L74,281L65,281ZM92,272L110,272L110,281L92,281ZM128,272L146,272L146,281L128,281ZM164,272L200,272L200,281L164,281ZM209,272L218,272L218,281L209,281ZM236,272L245,272L245,281L236,281ZM263,272L290,272L290,281L263,281ZM299,272L308,272L308,281L299,281ZM11,281L20,281L20,290L11,290ZM29,281L56,281L56,290L29,290ZM65,281L74,281L74,290L65,290ZM101,281L110,281L110,290L101,290ZM155,281L182,281L182,290L155,290ZM254,281L263,281L263,290L254,290ZM272,281L290,281L290,290L272,290ZM11,290L20,290L20,299L11,299ZM65,290L74,290L74,299L65,299ZM83,290L92,290L92,299L83,299ZM119,290L128,290L128,299L119,299ZM137,290L146,290L146,299L137,299ZM155,290L173,290L173,299L155,299ZM182,290L200,290L200,299L182,299ZM209,290L218,290L218,299L209,299ZM236,290L245,290L245,299L236,299ZM281,290L308,290L308,299L281,299ZM11,299L74,299L74,308L11,308ZM83,299L119,299L119,308L83,308ZM128,299L191,299L191,308L128,308ZM209,299L218,299L218,308L209,308ZM227,299L245,299L245,308L227,308ZM272,299L290,299L290,308L272,308ZM299,299L308,299L308,308L299,308Z"/></svg>
