<?xml version="1.0"?>
<svg xmlns="http://www.w3.org/2000/svg" xmlns:xlink="http://www.w3.org/1999/xlink" version="1.1" width="320px" height="320px" viewBox="0 0 320 320"><rect x="0" y="0" width="320" height="320" fill="#ffffff" fill-opacity="1"/><path fill="#000000" fill-opacity="1" d="M11,11L74,11L74,20L11,20ZM83,11L92,11L92,20L83,20ZM110,11L137,11L137,20L110,20ZM164,11L173,11L173,20L164,20ZM227,11L236,11L236,20L227,20ZM245,11L308,11L308,20L245,20ZM11,20L20,20L20,29L11,29ZM65,20L74,20L74,29L65,29ZM92,20L110,20L110,29L92,29ZM146,20L155,20L155,29L146,29ZM164,20L173,20L173,29L164,29ZM191,20L209,20L209,29L191,29ZM227,20L236,20L236,29L227,29ZM245,20L254,20L254,29L245,29ZM299,20L308,20L308,29L299,29ZM11,29L20,29L20,38L11,38ZM29,29L56,29L56,38L29,38ZM65,29L74,29L74,38L65,38ZM101,29L110,29L110,38L101,38ZM119,29L128,29L128,38L119,38ZM164,29L182,29L182,38L164,38ZM191,29L200,29L200,38L191,38ZM209,29L218,29L218,38L209,38ZM245,29L254,29L254,38L245,38ZM263,29L290,29L290,38L263,38ZM299,29L308,29L308,38L299,38ZM11,38L20,38L20,47L11,47ZM29,38L56,38L56,47L29,47ZM65,38L74,38L74,47L65,47ZM119,38L137,38L137,47L119,47ZM155,38L173,38L173,47L155,47ZM191,38L200,38L200,47L191,47ZM209,38L236,38L236,47L209,47ZM245,38L254,38L254,47L245,47ZM263,38L290,38L290,47L263,47ZM299,38L308,38L308,47L299,47ZM11,47L20,47L20,56L11,56ZM29,47L56,47L56,56L29,56ZM65,47L74,47L74,56L65,56ZM92,47L101,47L101,56L92,56ZM110,47L119,47L119,56L110,56ZM137,47L155,47L155,56L137,56ZM164,47L182,47L182,56L164,56ZM191,47L218,47L218,56L191,56ZM227,47L236,47L236,56L227,56ZM245,47L254,47L254,56L245,56ZM263,47L290,47L290,56L263,56ZM299,47L308,47L308,56L299,56ZM11,56L20,56L20,65L11,65ZM65,56L74,56L74,65L65,65ZM101,56L110,56L110,65L101,65ZM119,56L146,56L146,65L119,65ZM191,56L209,56L209,65L191,65ZM218,56L227,56L227,65L218,65ZM245,56L254,56L254,65L245,65ZM299,56L308,56L308,65L299,65ZM11,65L74,65L74,74L11,74ZM83,65L92,65L92,74L83,74ZM101,65L110,65L110,74L101,74ZM119,65L128,65L128,74L119,74ZM137,65L146,65L146,74L137,74ZM155,65L164,65L164,74L155,74ZM173,65L182,65L182,74L173,74ZM191,65L200,65L200,74L191,74ZM209,65L218,65L218,74L209,74ZM227,65L236,65L236,74L227,74ZM245,65L308,65L308,74L245,74ZM83,74L92,74L92,83L83,83ZM101,74L119,74L119,83L101,83ZM137,74L182,74L182,83L137,83ZM200,74L209,74L209,83L200,83ZM218,74L227,74L227,83L218,83ZM11,83L29,83L29,92L11,92ZM38,83L56,83L56,92L38,92ZM65,83L74,83L74,92L65,92ZM92,83L119,83L119,92L92,92ZM128,83L137,83L137,92L128,92ZM146,83L155,83L155,92L146,92ZM173,83L200,83L200,92L173,92ZM227,83L236,83L236,92L227,92ZM245,83L254,83L254,92L245,92ZM299,83L308,83L308,92L299,92ZM11,92L20,92L20,101L11,101ZM29,92L65,92L65,101L29,101ZM74,92L101,92L101,101L74,101ZM119,92L128,92L128,101L119,101ZM146,92L164,92L164,101L146,101ZM182,92L200,92L200,101L182,101ZM209,92L218,92L218,101L209,101ZM227,92L236,92L236,101L227,101ZM254,92L263,92L263,101L254,101ZM281,92L290,92L290,101L281,101ZM11,101L20,101L20,110L11,110ZM29,101L38,101L38,110L29,110ZM47,101L92,101L92,110L47,110ZM101,101L119,101L119,110L101,110ZM128,101L137,101L137,110L128,110ZM146,101L164,101L164,110L146,110ZM209,101L227,101L227,110L209,110ZM245,101L281,101L281,110L245,110ZM11,110L29,110L29,119L11,119ZM38,110L56,110L56,119L38,119ZM74,110L128,110L128,119L74,119ZM146,110L155,110L155,119L146,119ZM164,110L227,110L227,119L164,119ZM245,110L308,110L308,119L245,119ZM11,119L20,119L20,128L11,128ZM29,119L38,119L38,128L29,128ZM65,119L74,119L74,128L65,128ZM92,119L101,119L101,128L92,128ZM110,119L128,119L128,128L110,128ZM137,119L155,119L155,128L137,128ZM173,119L191,119L191,128L173,128ZM218,119L254,119L254,128L218,128ZM263,119L308,119L308,128L263,128ZM47,128L56,128L56,137L47,137ZM74,128L101,128L101,137L74,137ZM128,128L146,128L146,137L128,137ZM173,128L200,128L200,137L173,137ZM209,128L263,128L263,137L209,137ZM281,128L308,128L308,137L281,137ZM20,137L29,137L29,146L20,146ZM56,137L74,137L74,146L56,146ZM101,137L128,137L128,146L101,146ZM137,137L146,137L146,146L137,146ZM155,137L173,137L173,146L155,146ZM218,137L236,137L236,146L218,146ZM254,137L263,137L263,146L254,146ZM272,137L281,137L281,146L272,146ZM11,146L65,146L65,155L11,155ZM74,146L92,146L92,155L74,155ZM101,146L119,146L119,155L101,155ZM128,146L155,146L155,155L128,155ZM164,146L191,146L191,155L164,155ZM200,146L218,146L218,155L200,155ZM227,146L236,146L236,155L227,155ZM254,146L290,146L290,155L254,155ZM299,146L308,146L308,155L299,155ZM20,155L47,155L47,164L20,164ZM56,155L110,155L110,164L56,164ZM146,155L155,155L155,164L146,164ZM164,155L182,155L182,164L164,164ZM191,155L245,155L245,164L191,164ZM254,155L272,155L272,164L254,164ZM281,155L308,155L308,164L281,164ZM38,164L47,164L47,173L38,173ZM74,164L128,164L128,173L74,173ZM164,164L173,164L173,173L164,173ZM191,164L200,164L200,173L191,173ZM218,164L227,164L227,173L218,173ZM236,164L245,164L245,173L236,173ZM263,164L299,164L299,173L263,173ZM29,173L47,173L47,182L29,182ZM65,173L74,173L74,182L65,182ZM83,173L119,173L119,182L83,182ZM146,173L164,173L164,182L146,182ZM182,173L200,173L200,182L182,182ZM209,173L236,173L236,182L209,182ZM245,173L299,173L299,182L245,182ZM20,182L29,182L29,191L20,191ZM56,182L65,182L65,191L56,191ZM74,182L101,182L101,191L74,191ZM119,182L146,182L146,191L119,191ZM155,182L191,182L191,191L155,191ZM200,182L227,182L227,191L200,191ZM236,182L245,182L245,191L236,191ZM254,182L263,182L263,191L254,191ZM290,182L308,182L308,191L290,191ZM20,191L29,191L29,200L20,200ZM47,191L74,191L74,200L47,200ZM92,191L101,191L101,200L92,200ZM119,191L164,191L164,200L119,200ZM182,191L191,191L191,200L182,200ZM209,191L218,191L218,200L209,200ZM245,191L272,191L272,200L245,200ZM11,200L29,200L29,209L11,209ZM38,200L47,200L47,209L38,209ZM56,200L65,200L65,209L56,209ZM74,200L83,200L83,209L74,209ZM92,200L110,200L110,209L92,209ZM155,200L164,200L164,209L155,209ZM173,200L200,200L200,209L173,209ZM209,200L218,200L218,209L209,209ZM236,200L245,200L245,209L236,209ZM263,200L299,200L299,209L263,209ZM11,209L20,209L20,218L11,218ZM29,209L47,209L47,218L29,218ZM56,209L101,209L101,218L56,218ZM119,209L128,209L128,218L119,218ZM137,209L155,209L155,218L137,218ZM182,209L200,209L200,218L182,218ZM218,209L299,209L299,218L218,218ZM11,218L20,218L20,227L11,227ZM29,218L38,218L38,227L29,227ZM47,218L65,218L65,227L47,227ZM74,218L92,218L92,227L74,227ZM101,218L110,218L110,227L101,227ZM146,218L164,218L164,227L146,227ZM173,218L182,218L182,227L173,227ZM209,218L218,218L218,227L209,227ZM245,218L254,218L254,227L245,227ZM263,218L272,218L272,227L263,227ZM290,218L308,218L308,227L290,227ZM11,227L29,227L29,236L11,236ZM47,227L110,227L110,236L47,236ZM128,227L281,227L281,236L128,236ZM290,227L308,227L308,236L290,236ZM83,236L92,236L92,245L83,245ZM119,236L128,236L128,245L119,245ZM137,236L155,236L155,245L137,245ZM191,236L200,236L200,245L191,245ZM218,236L236,236L236,245L218,245ZM263,236L308,236L308,245L263,245ZM11,245L74,245L74,254L11,254ZM137,245L146,245L146,254L137,254ZM164,245L173,245L173,254L164,254ZM182,245L200,245L200,254L182,254ZM227,245L236,245L236,254L227,254ZM245,245L254,245L254,254L245,254ZM263,245L272,245L272,254L263,254ZM11,254L20,254L20,263L11,263ZM65,254L74,254L74,263L65,263ZM92,254L110,254L110,263L92,263ZM119,254L164,254L164,263L119,263ZM182,254L191,254L191,263L182,263ZM200,254L236,254L236,263L200,263ZM263,254L281,254L281,263L263,263ZM11,263L20,263L20,272L11,272ZM29,263L56,263L56,272L29,272ZM65,263L74,263L74,272L65,272ZM83,263L101,263L101,272L83,272ZM110,263L128,263L128,272L110,272ZM146,263L173,263L173,272L146,272ZM209,263L218,263L218,272L209,272ZM227,263L272,263L272,272L227,272ZM11,272L20,272L20,281L11,281ZM29,272L56,272L56,281L29,281ZM65,272L74,272L74,281L65,281ZM83,272L92,272L92,281L83,281ZM110,272L119,272L119,281L110,281ZM155,272L164,272L164,281L155,281ZM173,272L182,272L182,281L173,281ZM218,272L227,272L227,281L218,281ZM245,272L254,272L254,281L245,281ZM281,272L299,272L299,281L281,281ZM11,281L20,281L20,290L11,290ZM29,281L56,281L56,290L29,290ZM65,281L74,281L74,290L65,290ZM101,281L110,281L110,290L101,290ZM119,281L146,281L146,290L119,290ZM155,281L173,281L173,290L155,290ZM182,281L200,281L200,290L182,290ZM227,281L263,281L263,290L227,290ZM272,281L281,281L281,290L272,290ZM290,281L308,281L308,290L290,290ZM11,290L20,290L20,299L11,299ZM65,290L74,290L74,299L65,299ZM83,290L92,290L92,299L83,299ZM110,290L119,290L119,299L110,299ZM128,290L137,290L137,299L128,299ZM146,290L155,290L155,299L146,299ZM173,290L182,290L182,299L173,299ZM200,290L209,290L209,299L200,299ZM218,290L236,290L236,299L218,299ZM245,290L281,290L281,299L245,299ZM11,299L74,299L74,308L11,308ZM83,299L101,299L101,308L83,308ZM110,299L119,299L119,308L110,308ZM128,299L137,299L137,308L128,308ZM164,299L209,299L209,308L164,308ZM227,299L290,299L290,308L227,308Z"/></svg>
