<?xml version="1.0"?>
<svg xmlns="http://www.w3.org/2000/svg" xmlns:xlink="http://www.w3.org/1999/xlink" version="1.1" width="320px" height="320px" viewBox="0 0 320 320"><rect x="0" y="0" width="320" height="320" fill="#ffffff" fill-opacity="1"/><path fill="#000000" fill-opacity="1" d="M11,11L74,11L74,20L11,20ZM110,11L137,11L137,20L110,20ZM164,11L173,11L173,20L164,20ZM182,11L209,11L209,20L182,20ZM218,11L227,11L227,20L218,20ZM245,11L308,11L308,20L245,20ZM11,20L20,20L20,29L11,29ZM65,20L74,20L74,29L65,29ZM92,20L110,20L110,29L92,29ZM128,20L155,20L155,29L128,29ZM164,20L173,20L173,29L164,29ZM182,20L191,20L191,29L182,29ZM200,20L209,20L209,29L200,29ZM218,20L236,20L236,29L218,29ZM245,20L254,20L254,29L245,29ZM299,20L308,20L308,29L299,29ZM11,29L20,29L20,38L11,38ZM29,29L56,29L56,38L29,38ZM65,29L74,29L74,38L65,38ZM119,29L137,29L137,38L119,38ZM155,29L200,29L200,38L155,38ZM209,29L227,29L227,38L209,38ZM245,29L254,29L254,38L245,38ZM263,29L290,29L290,38L263,38ZM299,29L308,29L308,38L299,38ZM11,38L20,38L20,47L11,47ZM29,38L56,38L56,47L29,47ZM65,38L74,38L74,47L65,47ZM83,38L92,38L92,47L83,47ZM119,38L137,38L137,47L119,47ZM155,38L164,38L164,47L155,47ZM191,38L218,38L218,47L191,47ZM245,38L254,38L254,47L245,47ZM263,38L290,38L290,47L263,47ZM299,38L308,38L308,47L299,47ZM11,47L20,47L20,56L11,56ZM29,47L56,47L56,56L29,56ZM65,47L74,47L74,56L65,56ZM83,47L101,47L101,56L83,56ZM146,47L155,47L155,56L146,56ZM173,47L191,47L191,56L173,56ZM200,47L209,47L209,56L200,56ZM218,47L227,47L227,56L218,56ZM245,47L254,47L254,56L245,56ZM263,47L290,47L290,56L263,56ZM299,47L308,47L308,56L299,56ZM11,56L20,56L20,65L11,65ZM65,56L74,56L74,65L65,65ZM110,56L146,56L146,65L110,65ZM155,56L173,56L173,65L155,65ZM200,56L209,56L209,65L200,65ZM218,56L236,56L236,65L218,65ZM245,56L254,56L254,65L245,65ZM299,56L308,56L308,65L299,65ZM11,65L74,65L74,74L11,74ZM83,65L92,65L92,74L83,74ZM101,65L110,65L110,74L101,74ZM119,65L128,65L128,74L119,74ZM137,65L146,65L146,74L137,74ZM155,65L164,65L164,74L155,74ZM173,65L182,65L182,74L173,74ZM191,65L200,65L200,74L191,74ZM209,65L218,65L218,74L209,74ZM227,65L236,65L236,74L227,74ZM245,65L308,65L308,74L245,74ZM101,74L119,74L119,83L101,83ZM128,74L137,74L137,83L128,83ZM146,74L200,74L200,83L146,83ZM218,74L227,74L227,83L218,83ZM11,83L29,83L29,92L11,92ZM56,83L83,83L83,92L56,92ZM92,83L101,83L101,92L92,92ZM110,83L119,83L119,92L110,92ZM146,83L164,83L164,92L146,92ZM173,83L182,83L182,92L173,92ZM191,83L209,83L209,92L191,92ZM227,83L236,83L236,92L227,92ZM263,83L281,83L281,92L263,92ZM11,92L20,92L20,101L11,101ZM47,92L65,92L65,101L47,101ZM74,92L101,92L101,101L74,101ZM119,92L128,92L128,101L119,101ZM146,92L164,92L164,101L146,101ZM191,92L200,92L200,101L191,101ZM209,92L227,92L227,101L209,101ZM254,92L263,92L263,101L254,101ZM281,92L290,92L290,101L281,101ZM20,101L47,101L47,110L20,110ZM56,101L83,101L83,110L56,110ZM101,101L110,101L110,110L101,110ZM128,101L173,101L173,110L128,110ZM182,101L191,101L191,110L182,110ZM209,101L236,101L236,110L209,110ZM254,101L272,101L272,110L254,110ZM299,101L308,101L308,110L299,110ZM38,110L65,110L65,119L38,119ZM92,110L101,110L101,119L92,119ZM119,110L128,110L128,119L119,119ZM146,110L164,110L164,119L146,119ZM182,110L200,110L200,119L182,119ZM218,110L227,110L227,119L218,119ZM245,110L263,110L263,119L245,119ZM281,110L308,110L308,119L281,119ZM11,119L47,119L47,128L11,128ZM56,119L74,119L74,128L56,128ZM83,119L101,119L101,128L83,128ZM110,119L128,119L128,128L110,128ZM137,119L155,119L155,128L137,128ZM164,119L173,119L173,128L164,128ZM182,119L227,119L227,128L182,128ZM236,119L254,119L254,128L236,128ZM263,119L308,119L308,128L263,128ZM11,128L29,128L29,137L11,137ZM47,128L65,128L65,137L47,137ZM74,128L83,128L83,137L74,137ZM92,128L101,128L101,137L92,137ZM164,128L200,128L200,137L164,137ZM209,128L218,128L218,137L209,137ZM227,128L236,128L236,137L227,137ZM254,128L263,128L263,137L254,137ZM281,128L290,128L290,137L281,137ZM11,137L20,137L20,146L11,146ZM29,137L74,137L74,146L29,146ZM92,137L146,137L146,146L92,146ZM182,137L191,137L191,146L182,146ZM209,137L245,137L245,146L209,146ZM254,137L281,137L281,146L254,146ZM290,137L299,137L299,146L290,146ZM11,146L29,146L29,155L11,155ZM47,146L65,146L65,155L47,155ZM92,146L101,146L101,155L92,155ZM110,146L119,146L119,155L110,155ZM128,146L155,146L155,155L128,155ZM173,146L191,146L191,155L173,155ZM209,146L236,146L236,155L209,155ZM254,146L290,146L290,155L254,155ZM299,146L308,146L308,155L299,155ZM29,155L38,155L38,164L29,164ZM47,155L92,155L92,164L47,164ZM110,155L119,155L119,164L110,164ZM137,155L155,155L155,164L137,164ZM164,155L182,155L182,164L164,164ZM191,155L227,155L227,164L191,164ZM254,155L272,155L272,164L254,164ZM290,155L299,155L299,164L290,164ZM11,164L20,164L20,173L11,173ZM38,164L56,164L56,173L38,173ZM92,164L110,164L110,173L92,173ZM119,164L128,164L128,173L119,173ZM155,164L173,164L173,173L155,173ZM182,164L200,164L200,173L182,173ZM218,164L245,164L245,173L218,173ZM281,164L299,164L299,173L281,173ZM11,173L38,173L38,182L11,182ZM56,173L74,173L74,182L56,182ZM101,173L119,173L119,182L101,182ZM146,173L164,173L164,182L146,182ZM173,173L182,173L182,182L173,182ZM191,173L200,173L200,182L191,182ZM218,173L236,173L236,182L218,182ZM245,173L263,173L263,182L245,182ZM272,173L299,173L299,182L272,182ZM11,182L47,182L47,191L11,191ZM74,182L92,182L92,191L74,191ZM101,182L110,182L110,191L101,191ZM119,182L128,182L128,191L119,191ZM146,182L200,182L200,191L146,191ZM245,182L263,182L263,191L245,191ZM11,191L29,191L29,200L11,200ZM65,191L83,191L83,200L65,200ZM92,191L110,191L110,200L92,200ZM119,191L128,191L128,200L119,200ZM137,191L155,191L155,200L137,200ZM173,191L182,191L182,200L173,200ZM200,191L263,191L263,200L200,200ZM290,191L299,191L299,200L290,200ZM11,200L20,200L20,209L11,209ZM29,200L47,200L47,209L29,209ZM56,200L65,200L65,209L56,209ZM83,200L92,200L92,209L83,209ZM155,200L164,200L164,209L155,209ZM191,200L200,200L200,209L191,209ZM218,200L236,200L236,209L218,209ZM245,200L254,200L254,209L245,209ZM263,200L299,200L299,209L263,209ZM11,209L20,209L20,218L11,218ZM29,209L47,209L47,218L29,218ZM56,209L74,209L74,218L56,218ZM101,209L128,209L128,218L101,218ZM146,209L155,209L155,218L146,218ZM164,209L182,209L182,218L164,218ZM191,209L200,209L200,218L191,218ZM209,209L218,209L218,218L209,218ZM236,209L245,209L245,218L236,218ZM254,209L272,209L272,218L254,218ZM281,209L308,209L308,218L281,218ZM11,218L20,218L20,227L11,227ZM38,218L47,218L47,227L38,227ZM74,218L83,218L83,227L74,227ZM92,218L119,218L119,227L92,227ZM146,218L155,218L155,227L146,227ZM164,218L173,218L173,227L164,227ZM182,218L209,218L209,227L182,227ZM218,218L227,218L227,227L218,227ZM245,218L254,218L254,227L245,227ZM272,218L281,218L281,227L272,227ZM290,218L308,218L308,227L290,227ZM11,227L29,227L29,236L11,236ZM47,227L56,227L56,236L47,236ZM65,227L83,227L83,236L65,236ZM101,227L110,227L110,236L101,236ZM128,227L164,227L164,236L128,236ZM173,227L191,227L191,236L173,236ZM200,227L209,227L209,236L200,236ZM218,227L281,227L281,236L218,236ZM290,227L308,227L308,236L290,236ZM83,236L92,236L92,245L83,245ZM101,236L110,236L110,245L101,245ZM119,236L137,236L137,245L119,245ZM146,236L164,236L164,245L146,245ZM173,236L191,236L191,245L173,245ZM209,236L218,236L218,245L209,245ZM227,236L236,236L236,245L227,245ZM263,236L290,236L290,245L263,245ZM11,245L74,245L74,254L11,254ZM83,245L110,245L110,254L83,254ZM128,245L146,245L146,254L128,254ZM164,245L182,245L182,254L164,254ZM191,245L209,245L209,254L191,254ZM227,245L236,245L236,254L227,254ZM245,245L254,245L254,254L245,254ZM263,245L272,245L272,254L263,254ZM290,245L299,245L299,254L290,254ZM11,254L20,254L20,263L11,263ZM65,254L74,254L74,263L65,263ZM83,254L92,254L92,263L83,263ZM101,254L110,254L110,263L101,263ZM119,254L155,254L155,263L119,263ZM173,254L191,254L191,263L173,263ZM200,254L218,254L218,263L200,263ZM227,254L236,254L236,263L227,263ZM263,254L281,254L281,263L263,263ZM11,263L20,263L20,272L11,272ZM29,263L56,263L56,272L29,272ZM65,263L74,263L74,272L65,272ZM101,263L110,263L110,272L101,272ZM119,263L128,263L128,272L119,272ZM137,263L164,263L164,272L137,272ZM173,263L182,263L182,272L173,272ZM191,263L200,263L200,272L191,272ZM227,263L281,263L281,272L227,272ZM299,263L308,263L308,272L299,272ZM11,272L20,272L20,281L11,281ZM29,272L56,272L56,281L29,281ZM65,272L74,272L74,281L65,281ZM101,272L110,272L110,281L101,281ZM146,272L164,272L164,281L146,281ZM173,272L182,272L182,281L173,281ZM218,272L236,272L236,281L218,281ZM245,272L254,272L254,281L245,281ZM263,272L299,272L299,281L263,281ZM11,281L20,281L20,290L11,290ZM29,281L56,281L56,290L29,290ZM65,281L74,281L74,290L65,290ZM119,281L146,281L146,290L119,290ZM155,281L173,281L173,290L155,290ZM191,281L209,281L209,290L191,290ZM227,281L236,281L236,290L227,290ZM245,281L263,281L263,290L245,290ZM272,281L281,281L281,290L272,290ZM290,281L308,281L308,290L290,290ZM11,290L20,290L20,299L11,299ZM65,290L74,290L74,299L65,299ZM83,290L92,290L92,299L83,299ZM101,290L119,290L119,299L101,299ZM137,290L200,290L200,299L137,299ZM254,290L281,290L281,299L254,299ZM290,290L308,290L308,299L290,299ZM11,299L74,299L74,308L11,308ZM83,299L119,299L119,308L83,308ZM146,299L155,299L155,308L146,308ZM164,299L173,299L173,308L164,308ZM200,299L218,299L218,308L200,308ZM254,299L263,299L263,308L254,308ZM272,299L299,299L299,308L272,308Z"/></svg>
