<?xml version="1.0"?>
<svg xmlns="http://www.w3.org/2000/svg" xmlns:xlink="http://www.w3.org/1999/xlink" version="1.1" width="320px" height="320px" viewBox="0 0 320 320"><rect x="0" y="0" width="320" height="320" fill="#ffffff" fill-opacity="1"/><path fill="#000000" fill-opacity="1" d="M11,11L74,11L74,20L11,20ZM101,11L110,11L110,20L101,20ZM119,11L128,11L128,20L119,20ZM146,11L164,11L164,20L146,20ZM182,11L227,11L227,20L182,20ZM245,11L308,11L308,20L245,20ZM11,20L20,20L20,29L11,29ZM65,20L74,20L74,29L65,29ZM83,20L92,20L92,29L83,29ZM101,20L110,20L110,29L101,29ZM128,20L155,20L155,29L128,29ZM164,20L173,20L173,29L164,29ZM182,20L191,20L191,29L182,29ZM209,20L236,20L236,29L209,29ZM245,20L254,20L254,29L245,29ZM299,20L308,20L308,29L299,29ZM11,29L20,29L20,38L11,38ZM29,29L56,29L56,38L29,38ZM65,29L74,29L74,38L65,38ZM119,29L137,29L137,38L119,38ZM155,29L200,29L200,38L155,38ZM218,29L227,29L227,38L218,38ZM245,29L254,29L254,38L245,38ZM263,29L290,29L290,38L263,38ZM299,29L308,29L308,38L299,38ZM11,38L20,38L20,47L11,47ZM29,38L56,38L56,47L29,47ZM65,38L74,38L74,47L65,47ZM83,38L110,38L110,47L83,47ZM119,38L128,38L128,47L119,47ZM146,38L155,38L155,47L146,47ZM164,38L173,38L173,47L164,47ZM200,38L218,38L218,47L200,47ZM227,38L236,38L236,47L227,47ZM245,38L254,38L254,47L245,47ZM263,38L290,38L290,47L263,47ZM299,38L308,38L308,47L299,47ZM11,47L20,47L20,56L11,56ZM29,47L56,47L56,56L29,56ZM65,47L74,47L74,56L65,56ZM92,47L101,47L101,56L92,56ZM137,47L155,47L155,56L137,56ZM173,47L182,47L182,56L173,56ZM200,47L227,47L227,56L200,56ZM245,47L254,47L254,56L245,56ZM263,47L290,47L290,56L263,56ZM299,47L308,47L308,56L299,56ZM11,56L20,56L20,65L11,65ZM65,56L74,56L74,65L65,65ZM83,56L101,56L101,65L83,65ZM110,56L155,56L155,65L110,65ZM164,56L173,56L173,65L164,65ZM191,56L200,56L200,65L191,65ZM218,56L236,56L236,65L218,65ZM245,56L254,56L254,65L245,65ZM299,56L308,56L308,65L299,65ZM11,65L74,65L74,74L11,74ZM83,65L92,65L92,74L83,74ZM101,65L110,65L110,74L101,74ZM119,65L128,65L128,74L119,74ZM137,65L146,65L146,74L137,74ZM155,65L164,65L164,74L155,74ZM173,65L182,65L182,74L173,74ZM191,65L200,65L200,74L191,74ZM209,65L218,65L218,74L209,74ZM227,65L236,65L236,74L227,74ZM245,65L308,65L308,74L245,74ZM92,74L119,74L119,83L92,83ZM137,74L146,74L146,83L137,83ZM164,74L200,74L200,83L164,83ZM209,74L227,74L227,83L209,83ZM11,83L56,83L56,92L11,92ZM65,83L101,83L101,92L65,92ZM110,83L119,83L119,92L110,92ZM128,83L137,83L137,92L128,92ZM146,83L155,83L155,92L146,92ZM173,83L182,83L182,92L173,92ZM191,83L200,83L200,92L191,92ZM236,83L245,83L245,92L236,92ZM254,83L263,83L263,92L254,92ZM272,83L281,83L281,92L272,92ZM290,83L299,83L299,92L290,92ZM38,92L65,92L65,101L38,101ZM83,92L92,92L92,101L83,101ZM101,92L110,92L110,101L101,101ZM119,92L128,92L128,101L119,101ZM137,92L146,92L146,101L137,101ZM155,92L164,92L164,101L155,101ZM182,92L191,92L191,101L182,101ZM200,92L209,92L209,101L200,101ZM227,92L236,92L236,101L227,101ZM245,92L254,92L254,101L245,101ZM263,92L272,92L272,101L263,101ZM281,92L290,92L290,101L281,101ZM299,92L308,92L308,101L299,101ZM11,101L20,101L20,110L11,110ZM29,101L92,101L92,110L29,110ZM101,101L110,101L110,110L101,110ZM128,101L146,101L146,110L128,110ZM164,101L173,101L173,110L164,110ZM191,101L200,101L200,110L191,110ZM218,101L245,101L245,110L218,110ZM254,101L272,101L272,110L254,110ZM299,101L308,101L308,110L299,110ZM56,110L65,110L65,119L56,119ZM74,110L92,110L92,119L74,119ZM119,110L128,110L128,119L119,119ZM137,110L146,110L146,119L137,119ZM155,110L164,110L164,119L155,119ZM173,110L209,110L209,119L173,119ZM218,110L236,110L236,119L218,119ZM245,110L254,110L254,119L245,119ZM281,110L308,110L308,119L281,119ZM47,119L74,119L74,128L47,128ZM83,119L110,119L110,128L83,128ZM119,119L128,119L128,128L119,128ZM146,119L182,119L182,128L146,128ZM191,119L209,119L209,128L191,128ZM218,119L227,119L227,128L218,128ZM236,119L245,119L245,128L236,128ZM281,119L290,119L290,128L281,128ZM20,128L38,128L38,137L20,137ZM47,128L56,128L56,137L47,137ZM74,128L83,128L83,137L74,137ZM155,128L164,128L164,137L155,137ZM173,128L182,128L182,137L173,137ZM200,128L209,128L209,137L200,137ZM218,128L236,128L236,137L218,137ZM281,128L290,128L290,137L281,137ZM29,137L74,137L74,146L29,146ZM83,137L101,137L101,146L83,146ZM110,137L146,137L146,146L110,146ZM164,137L173,137L173,146L164,146ZM182,137L191,137L191,146L182,146ZM209,137L218,137L218,146L209,146ZM227,137L245,137L245,146L227,146ZM254,137L281,137L281,146L254,146ZM290,137L299,137L299,146L290,146ZM29,146L38,146L38,155L29,155ZM56,146L65,146L65,155L56,155ZM83,146L101,146L101,155L83,155ZM110,146L119,146L119,155L110,155ZM128,146L137,146L137,155L128,155ZM155,146L200,146L200,155L155,155ZM245,146L254,146L254,155L245,155ZM272,146L290,146L290,155L272,155ZM20,155L38,155L38,164L20,164ZM47,155L119,155L119,164L47,164ZM128,155L155,155L155,164L128,164ZM173,155L182,155L182,164L173,164ZM200,155L281,155L281,164L200,164ZM290,155L299,155L299,164L290,164ZM38,164L47,164L47,173L38,173ZM56,164L65,164L65,173L56,173ZM74,164L92,164L92,173L74,173ZM119,164L128,164L128,173L119,173ZM137,164L146,164L146,173L137,173ZM155,164L164,164L164,173L155,173ZM191,164L272,164L272,173L191,173ZM281,164L299,164L299,173L281,173ZM29,173L56,173L56,182L29,182ZM65,173L74,173L74,182L65,182ZM83,173L110,173L110,182L83,182ZM128,173L146,173L146,182L128,182ZM164,173L173,173L173,182L164,182ZM209,173L218,173L218,182L209,182ZM236,173L245,173L245,182L236,182ZM254,173L272,173L272,182L254,182ZM281,173L290,173L290,182L281,182ZM299,173L308,173L308,182L299,182ZM20,182L47,182L47,191L20,191ZM83,182L101,182L101,191L83,191ZM119,182L137,182L137,191L119,191ZM146,182L182,182L182,191L146,191ZM191,182L200,182L200,191L191,191ZM218,182L227,182L227,191L218,191ZM236,182L254,182L254,191L236,191ZM47,191L83,191L83,200L47,200ZM101,191L110,191L110,200L101,200ZM119,191L155,191L155,200L119,200ZM209,191L218,191L218,200L209,200ZM227,191L245,191L245,200L227,200ZM254,191L263,191L263,200L254,200ZM290,191L299,191L299,200L290,200ZM11,200L29,200L29,209L11,209ZM38,200L56,200L56,209L38,209ZM74,200L83,200L83,209L74,209ZM101,200L110,200L110,209L101,209ZM146,200L155,200L155,209L146,209ZM173,200L191,200L191,209L173,209ZM200,200L218,200L218,209L200,209ZM227,200L245,200L245,209L227,209ZM254,200L263,200L263,209L254,209ZM272,200L308,200L308,209L272,209ZM11,209L20,209L20,218L11,218ZM47,209L56,209L56,218L47,218ZM65,209L92,209L92,218L65,218ZM101,209L155,209L155,218L101,218ZM164,209L173,209L173,218L164,218ZM182,209L191,209L191,218L182,218ZM209,209L218,209L218,218L209,218ZM236,209L245,209L245,218L236,218ZM254,209L272,209L272,218L254,218ZM281,209L290,209L290,218L281,218ZM11,218L20,218L20,227L11,227ZM29,218L65,218L65,227L29,227ZM74,218L119,218L119,227L74,227ZM128,218L137,218L137,227L128,227ZM164,218L182,218L182,227L164,227ZM245,218L263,218L263,227L245,227ZM272,218L281,218L281,227L272,227ZM11,227L20,227L20,236L11,236ZM29,227L38,227L38,236L29,236ZM47,227L56,227L56,236L47,236ZM65,227L74,227L74,236L65,236ZM83,227L128,227L128,236L83,236ZM146,227L155,227L155,236L146,236ZM173,227L182,227L182,236L173,236ZM200,227L209,227L209,236L200,236ZM227,227L272,227L272,236L227,236ZM290,227L299,227L299,236L290,236ZM83,236L92,236L92,245L83,245ZM101,236L110,236L110,245L101,245ZM119,236L128,236L128,245L119,245ZM137,236L146,236L146,245L137,245ZM191,236L209,236L209,245L191,245ZM227,236L236,236L236,245L227,245ZM263,236L290,236L290,245L263,245ZM11,245L74,245L74,254L11,254ZM83,245L92,245L92,254L83,254ZM101,245L110,245L110,254L101,254ZM119,245L146,245L146,254L119,254ZM155,245L173,245L173,254L155,254ZM209,245L236,245L236,254L209,254ZM245,245L254,245L254,254L245,254ZM263,245L272,245L272,254L263,254ZM290,245L299,245L299,254L290,254ZM11,254L20,254L20,263L11,263ZM65,254L74,254L74,263L65,263ZM92,254L101,254L101,263L92,263ZM119,254L128,254L128,263L119,263ZM182,254L209,254L209,263L182,263ZM227,254L236,254L236,263L227,263ZM263,254L281,254L281,263L263,263ZM299,254L308,254L308,263L299,263ZM11,263L20,263L20,272L11,272ZM29,263L56,263L56,272L29,272ZM65,263L74,263L74,272L65,272ZM83,263L92,263L92,272L83,272ZM128,263L137,263L137,272L128,272ZM146,263L164,263L164,272L146,272ZM191,263L209,263L209,272L191,272ZM218,263L281,263L281,272L218,272ZM299,263L308,263L308,272L299,272ZM11,272L20,272L20,281L11,281ZM29,272L56,272L56,281L29,281ZM65,272L74,272L74,281L65,281ZM83,272L101,272L101,281L83,281ZM146,272L155,272L155,281L146,281ZM164,272L182,272L182,281L164,281ZM191,272L218,272L218,281L191,281ZM227,272L236,272L236,281L227,281ZM254,272L299,272L299,281L254,281ZM11,281L20,281L20,290L11,290ZM29,281L56,281L56,290L29,290ZM65,281L74,281L74,290L65,290ZM83,281L101,281L101,290L83,290ZM119,281L146,281L146,290L119,290ZM209,281L218,281L218,290L209,290ZM227,281L236,281L236,290L227,290ZM245,281L272,281L272,290L245,290ZM11,290L20,290L20,299L11,299ZM65,290L74,290L74,299L65,299ZM83,290L92,290L92,299L83,299ZM110,290L119,290L119,299L110,299ZM128,290L137,290L137,299L128,299ZM173,290L200,290L200,299L173,299ZM218,290L245,290L245,299L218,299ZM263,290L281,290L281,299L263,299ZM290,290L308,290L308,299L290,299ZM11,299L74,299L74,308L11,308ZM83,299L92,299L92,308L83,308ZM101,299L110,299L110,308L101,308ZM119,299L128,299L128,308L119,308ZM137,299L146,299L146,308L137,308ZM155,299L182,299L182,308L155,308ZM191,299L218,299L218,308L191,308ZM245,299L263,299L263,308L245,308ZM272,299L299,299L299,308L272,308Z"/></svg>
