<?xml version="1.0"?>
<svg xmlns="http://www.w3.org/2000/svg" xmlns:xlink="http://www.w3.org/1999/xlink" version="1.1" width="320px" height="320px" viewBox="0 0 320 320"><rect x="0" y="0" width="320" height="320" fill="#ffffff" fill-opacity="1"/><path fill="#000000" fill-opacity="1" d="M11,11L74,11L74,20L11,20ZM92,11L101,11L101,20L92,20ZM137,11L164,11L164,20L137,20ZM173,11L182,11L182,20L173,20ZM191,11L218,11L218,20L191,20ZM245,11L308,11L308,20L245,20ZM11,20L20,20L20,29L11,29ZM65,20L74,20L74,29L65,29ZM83,20L101,20L101,29L83,29ZM110,20L128,20L128,29L110,29ZM146,20L155,20L155,29L146,29ZM164,20L173,20L173,29L164,29ZM182,20L191,20L191,29L182,29ZM209,20L236,20L236,29L209,29ZM245,20L254,20L254,29L245,29ZM299,20L308,20L308,29L299,29ZM11,29L20,29L20,38L11,38ZM29,29L56,29L56,38L29,38ZM65,29L74,29L74,38L65,38ZM92,29L119,29L119,38L92,38ZM155,29L200,29L200,38L155,38ZM218,29L227,29L227,38L218,38ZM245,29L254,29L254,38L245,38ZM263,29L290,29L290,38L263,38ZM299,29L308,29L308,38L299,38ZM11,38L20,38L20,47L11,47ZM29,38L56,38L56,47L29,47ZM65,38L74,38L74,47L65,47ZM83,38L101,38L101,47L83,47ZM110,38L119,38L119,47L110,47ZM146,38L155,38L155,47L146,47ZM173,38L182,38L182,47L173,47ZM191,38L200,38L200,47L191,47ZM209,38L218,38L218,47L209,47ZM227,38L236,38L236,47L227,47ZM245,38L254,38L254,47L245,47ZM263,38L290,38L290,47L263,47ZM299,38L308,38L308,47L299,47ZM11,47L20,47L20,56L11,56ZM29,47L56,47L56,56L29,56ZM65,47L74,47L74,56L65,56ZM101,47L110,47L110,56L101,56ZM119,47L137,47L137,56L119,56ZM146,47L164,47L164,56L146,56ZM200,47L218,47L218,56L200,56ZM227,47L236,47L236,56L227,56ZM245,47L254,47L254,56L245,56ZM263,47L290,47L290,56L263,56ZM299,47L308,47L308,56L299,56ZM11,56L20,56L20,65L11,65ZM65,56L74,56L74,65L65,65ZM83,56L92,56L92,65L83,65ZM101,56L110,56L110,65L101,65ZM128,56L146,56L146,65L128,65ZM164,56L173,56L173,65L164,65ZM182,56L191,56L191,65L182,65ZM209,56L218,56L218,65L209,65ZM227,56L236,56L236,65L227,65ZM245,56L254,56L254,65L245,65ZM299,56L308,56L308,65L299,65ZM11,65L74,65L74,74L11,74ZM83,65L92,65L92,74L83,74ZM101,65L110,65L110,74L101,74ZM119,65L128,65L128,74L119,74ZM137,65L146,65L146,74L137,74ZM155,65L164,65L164,74L155,74ZM173,65L182,65L182,74L173,74ZM191,65L200,65L200,74L191,74ZM209,65L218,65L218,74L209,74ZM227,65L236,65L236,74L227,74ZM245,65L308,65L308,74L245,74ZM119,74L137,74L137,83L119,83ZM155,74L164,74L164,83L155,83ZM182,74L209,74L209,83L182,83ZM218,74L236,74L236,83L218,83ZM11,83L56,83L56,92L11,92ZM65,83L110,83L110,92L65,92ZM119,83L128,83L128,92L119,92ZM137,83L155,83L155,92L137,92ZM200,83L209,83L209,92L200,92ZM227,83L245,83L245,92L227,92ZM254,83L263,83L263,92L254,92ZM272,83L281,83L281,92L272,92ZM290,83L299,83L299,92L290,92ZM11,92L29,92L29,101L11,101ZM38,92L47,92L47,101L38,101ZM74,92L101,92L101,101L74,101ZM164,92L191,92L191,101L164,101ZM200,92L236,92L236,101L200,101ZM281,92L290,92L290,101L281,101ZM299,92L308,92L308,101L299,101ZM11,101L20,101L20,110L11,110ZM29,101L56,101L56,110L29,110ZM65,101L74,101L74,110L65,110ZM92,101L101,101L101,110L92,110ZM110,101L128,101L128,110L110,110ZM146,101L155,101L155,110L146,110ZM209,101L227,101L227,110L209,110ZM236,101L245,101L245,110L236,110ZM254,101L272,101L272,110L254,110ZM299,101L308,101L308,110L299,110ZM20,110L29,110L29,119L20,119ZM47,110L56,110L56,119L47,119ZM83,110L119,110L119,119L83,119ZM137,110L146,110L146,119L137,119ZM155,110L164,110L164,119L155,119ZM173,110L236,110L236,119L173,119ZM245,110L254,110L254,119L245,119ZM281,110L308,110L308,119L281,119ZM11,119L29,119L29,128L11,128ZM47,119L83,119L83,128L47,128ZM92,119L101,119L101,128L92,128ZM110,119L119,119L119,128L110,128ZM146,119L182,119L182,128L146,128ZM191,119L218,119L218,128L191,128ZM245,119L254,119L254,128L245,128ZM281,119L290,119L290,128L281,128ZM20,128L29,128L29,137L20,137ZM47,128L65,128L65,137L47,137ZM83,128L110,128L110,137L83,137ZM119,128L155,128L155,137L119,137ZM164,128L173,128L173,137L164,137ZM200,128L209,128L209,137L200,137ZM236,128L245,128L245,137L236,137ZM254,128L272,128L272,137L254,137ZM281,128L290,128L290,137L281,137ZM11,137L56,137L56,146L11,146ZM65,137L83,137L83,146L65,146ZM92,137L110,137L110,146L92,146ZM128,137L146,137L146,146L128,146ZM164,137L191,137L191,146L164,146ZM209,137L236,137L236,146L209,146ZM254,137L281,137L281,146L254,146ZM290,137L299,137L299,146L290,146ZM11,146L38,146L38,155L11,155ZM47,146L65,146L65,155L47,155ZM101,146L110,146L110,155L101,155ZM119,146L137,146L137,155L119,155ZM155,146L209,146L209,155L155,155ZM218,146L227,146L227,155L218,155ZM11,155L29,155L29,164L11,164ZM65,155L83,155L83,164L65,164ZM92,155L110,155L110,164L92,164ZM119,155L128,155L128,164L119,164ZM137,155L155,155L155,164L137,164ZM173,155L182,155L182,164L173,164ZM200,155L218,155L218,164L200,164ZM245,155L272,155L272,164L245,164ZM281,155L299,155L299,164L281,164ZM11,164L20,164L20,173L11,173ZM38,164L56,164L56,173L38,173ZM74,164L83,164L83,173L74,173ZM92,164L101,164L101,173L92,173ZM155,164L164,164L164,173L155,173ZM182,164L227,164L227,173L182,173ZM245,164L272,164L272,173L245,173ZM281,164L299,164L299,173L281,173ZM20,173L29,173L29,182L20,182ZM38,173L47,173L47,182L38,182ZM65,173L74,173L74,182L65,182ZM92,173L101,173L101,182L92,182ZM110,173L128,173L128,182L110,182ZM164,173L191,173L191,182L164,182ZM209,173L245,173L245,182L209,182ZM281,173L290,173L290,182L281,182ZM299,173L308,173L308,182L299,182ZM38,182L56,182L56,191L38,191ZM74,182L101,182L101,191L74,191ZM110,182L119,182L119,191L110,191ZM137,182L146,182L146,191L137,191ZM155,182L173,182L173,191L155,191ZM182,182L200,182L200,191L182,191ZM209,182L227,182L227,191L209,191ZM236,182L245,182L245,191L236,191ZM20,191L83,191L83,200L20,200ZM110,191L119,191L119,200L110,200ZM146,191L182,191L182,200L146,200ZM191,191L200,191L200,200L191,200ZM227,191L236,191L236,200L227,200ZM254,191L263,191L263,200L254,200ZM290,191L299,191L299,200L290,200ZM11,200L20,200L20,209L11,209ZM29,200L38,200L38,209L29,209ZM74,200L101,200L101,209L74,209ZM119,200L146,200L146,209L119,209ZM155,200L164,200L164,209L155,209ZM173,200L209,200L209,209L173,209ZM218,200L227,200L227,209L218,209ZM254,200L263,200L263,209L254,209ZM272,200L290,200L290,209L272,209ZM299,200L308,200L308,209L299,209ZM11,209L20,209L20,218L11,218ZM47,209L56,209L56,218L47,218ZM65,209L83,209L83,218L65,218ZM101,209L110,209L110,218L101,218ZM128,209L146,209L146,218L128,218ZM164,209L191,209L191,218L164,218ZM200,209L209,209L209,218L200,218ZM218,209L245,209L245,218L218,218ZM254,209L272,209L272,218L254,218ZM281,209L290,209L290,218L281,218ZM299,209L308,209L308,218L299,218ZM11,218L20,218L20,227L11,227ZM74,218L110,218L110,227L74,227ZM119,218L137,218L137,227L119,227ZM155,218L164,218L164,227L155,227ZM173,218L200,218L200,227L173,227ZM218,218L227,218L227,227L218,227ZM236,218L263,218L263,227L236,227ZM272,218L281,218L281,227L272,227ZM290,218L308,218L308,227L290,227ZM11,227L20,227L20,236L11,236ZM56,227L74,227L74,236L56,236ZM83,227L101,227L101,236L83,236ZM119,227L128,227L128,236L119,236ZM137,227L155,227L155,236L137,236ZM173,227L182,227L182,236L173,236ZM227,227L272,227L272,236L227,236ZM83,236L110,236L110,245L83,245ZM146,236L155,236L155,245L146,245ZM173,236L182,236L182,245L173,245ZM200,236L209,236L209,245L200,245ZM218,236L236,236L236,245L218,245ZM263,236L290,236L290,245L263,245ZM11,245L74,245L74,254L11,254ZM83,245L92,245L92,254L83,254ZM101,245L128,245L128,254L101,254ZM146,245L164,245L164,254L146,254ZM191,245L218,245L218,254L191,254ZM227,245L236,245L236,254L227,254ZM245,245L254,245L254,254L245,254ZM263,245L272,245L272,254L263,254ZM290,245L299,245L299,254L290,254ZM11,254L20,254L20,263L11,263ZM65,254L74,254L74,263L65,263ZM92,254L119,254L119,263L92,263ZM137,254L146,254L146,263L137,263ZM155,254L164,254L164,263L155,263ZM173,254L209,254L209,263L173,263ZM227,254L236,254L236,263L227,263ZM263,254L281,254L281,263L263,263ZM299,254L308,254L308,263L299,263ZM11,263L20,263L20,272L11,272ZM29,263L56,263L56,272L29,272ZM65,263L74,263L74,272L65,272ZM83,263L92,263L92,272L83,272ZM110,263L119,263L119,272L110,272ZM146,263L164,263L164,272L146,272ZM191,263L281,263L281,272L191,272ZM299,263L308,263L308,272L299,272ZM11,272L20,272L20,281L11,281ZM29,272L56,272L56,281L29,281ZM65,272L74,272L74,281L65,281ZM83,272L92,272L92,281L83,281ZM119,272L146,272L146,281L119,281ZM173,272L191,272L191,281L173,281ZM200,272L209,272L209,281L200,281ZM254,272L299,272L299,281L254,281ZM11,281L20,281L20,290L11,290ZM29,281L56,281L56,290L29,290ZM65,281L74,281L74,290L65,290ZM83,281L92,281L92,290L83,290ZM101,281L110,281L110,290L101,290ZM128,281L173,281L173,290L128,290ZM191,281L200,281L200,290L191,290ZM209,281L218,281L218,290L209,290ZM245,281L272,281L272,290L245,290ZM11,290L20,290L20,299L11,299ZM65,290L74,290L74,299L65,299ZM83,290L92,290L92,299L83,299ZM101,290L110,290L110,299L101,299ZM119,290L137,290L137,299L119,299ZM155,290L200,290L200,299L155,299ZM218,290L227,290L227,299L218,299ZM236,290L254,290L254,299L236,299ZM263,290L281,290L281,299L263,299ZM290,290L308,290L308,299L290,299ZM11,299L74,299L74,308L11,308ZM83,299L92,299L92,308L83,308ZM119,299L128,299L128,308L119,308ZM137,299L164,299L164,308L137,308ZM173,299L182,299L182,308L173,308ZM191,299L209,299L209,308L191,308ZM227,299L236,299L236,308L227,308ZM254,299L263,299L263,308L254,308ZM272,299L299,299L299,308L272,308Z"/></svg>
