<?xml version="1.0"?>
<svg xmlns="http://www.w3.org/2000/svg" xmlns:xlink="http://www.w3.org/1999/xlink" version="1.1" width="320px" height="320px" viewBox="0 0 320 320"><rect x="0" y="0" width="320" height="320" fill="#ffffff" fill-opacity="1"/><path fill="#000000" fill-opacity="1" d="M11,11L74,11L74,20L11,20ZM92,11L101,11L101,20L92,20ZM146,11L182,11L182,20L146,20ZM191,11L236,11L236,20L191,20ZM245,11L308,11L308,20L245,20ZM11,20L20,20L20,29L11,29ZM65,20L74,20L74,29L65,29ZM83,20L101,20L101,29L83,29ZM110,20L128,20L128,29L110,29ZM191,20L200,20L200,29L191,29ZM209,20L218,20L218,29L209,29ZM245,20L254,20L254,29L245,29ZM299,20L308,20L308,29L299,29ZM11,29L20,29L20,38L11,38ZM29,29L56,29L56,38L29,38ZM65,29L74,29L74,38L65,38ZM92,29L119,29L119,38L92,38ZM137,29L146,29L146,38L137,38ZM155,29L164,29L164,38L155,38ZM173,29L209,29L209,38L173,38ZM218,29L227,29L227,38L218,38ZM245,29L254,29L254,38L245,38ZM263,29L290,29L290,38L263,38ZM299,29L308,29L308,38L299,38ZM11,38L20,38L20,47L11,47ZM29,38L56,38L56,47L29,47ZM65,38L74,38L74,47L65,47ZM83,38L101,38L101,47L83,47ZM110,38L119,38L119,47L110,47ZM164,38L182,38L182,47L164,47ZM191,38L209,38L209,47L191,47ZM227,38L236,38L236,47L227,47ZM245,38L254,38L254,47L245,47ZM263,38L290,38L290,47L263,47ZM299,38L308,38L308,47L299,47ZM11,47L20,47L20,56L11,56ZM29,47L56,47L56,56L29,56ZM65,47L74,47L74,56L65,56ZM101,47L110,47L110,56L101,56ZM119,47L155,47L155,56L119,56ZM164,47L173,47L173,56L164,56ZM200,47L218,47L218,56L200,56ZM227,47L236,47L236,56L227,56ZM245,47L254,47L254,56L245,56ZM263,47L290,47L290,56L263,56ZM299,47L308,47L308,56L299,56ZM11,56L20,56L20,65L11,65ZM65,56L74,56L74,65L65,65ZM83,56L92,56L92,65L83,65ZM101,56L110,56L110,65L101,65ZM128,56L155,56L155,65L128,65ZM164,56L191,56L191,65L164,65ZM209,56L218,56L218,65L209,65ZM227,56L236,56L236,65L227,65ZM245,56L254,56L254,65L245,65ZM299,56L308,56L308,65L299,65ZM11,65L74,65L74,74L11,74ZM83,65L92,65L92,74L83,74ZM101,65L110,65L110,74L101,74ZM119,65L128,65L128,74L119,74ZM137,65L146,65L146,74L137,74ZM155,65L164,65L164,74L155,74ZM173,65L182,65L182,74L173,74ZM191,65L200,65L200,74L191,74ZM209,65L218,65L218,74L209,74ZM227,65L236,65L236,74L227,74ZM245,65L308,65L308,74L245,74ZM119,74L137,74L137,83L119,83ZM146,74L155,74L155,83L146,83ZM164,74L200,74L200,83L164,83ZM218,74L236,74L236,83L218,83ZM11,83L56,83L56,92L11,92ZM65,83L110,83L110,92L65,92ZM119,83L128,83L128,92L119,92ZM137,83L164,83L164,92L137,92ZM173,83L182,83L182,92L173,92ZM200,83L218,83L218,92L200,92ZM227,83L245,83L245,92L227,92ZM254,83L263,83L263,92L254,92ZM272,83L281,83L281,92L272,92ZM290,83L299,83L299,92L290,92ZM20,92L38,92L38,101L20,101ZM47,92L56,92L56,101L47,101ZM74,92L83,92L83,101L74,101ZM92,92L101,92L101,101L92,101ZM146,92L164,92L164,101L146,101ZM191,92L236,92L236,101L191,101ZM281,92L290,92L290,101L281,101ZM299,92L308,92L308,101L299,101ZM20,101L38,101L38,110L20,110ZM56,101L74,101L74,110L56,110ZM92,101L101,101L101,110L92,110ZM110,101L128,101L128,110L110,110ZM146,101L155,101L155,110L146,110ZM164,101L191,101L191,110L164,110ZM209,101L227,101L227,110L209,110ZM236,101L245,101L245,110L236,110ZM254,101L272,101L272,110L254,110ZM299,101L308,101L308,110L299,110ZM11,110L20,110L20,119L11,119ZM47,110L56,110L56,119L47,119ZM92,110L119,110L119,119L92,119ZM137,110L146,110L146,119L137,119ZM155,110L173,110L173,119L155,119ZM182,110L200,110L200,119L182,119ZM218,110L236,110L236,119L218,119ZM245,110L254,110L254,119L245,119ZM281,110L308,110L308,119L281,119ZM11,119L20,119L20,128L11,128ZM38,119L47,119L47,128L38,128ZM56,119L83,119L83,128L56,128ZM92,119L101,119L101,128L92,128ZM110,119L119,119L119,128L110,128ZM146,119L155,119L155,128L146,128ZM164,119L182,119L182,128L164,128ZM191,119L209,119L209,128L191,128ZM245,119L254,119L254,128L245,128ZM281,119L290,119L290,128L281,128ZM20,128L29,128L29,137L20,137ZM38,128L47,128L47,137L38,137ZM56,128L65,128L65,137L56,137ZM74,128L92,128L92,137L74,137ZM101,128L110,128L110,137L101,137ZM119,128L164,128L164,137L119,137ZM173,128L182,128L182,137L173,137ZM200,128L218,128L218,137L200,137ZM236,128L245,128L245,137L236,137ZM254,128L272,128L272,137L254,137ZM281,128L290,128L290,137L281,137ZM20,137L38,137L38,146L20,146ZM47,137L74,137L74,146L47,146ZM92,137L101,137L101,146L92,146ZM128,137L146,137L146,146L128,146ZM164,137L191,137L191,146L164,146ZM200,137L209,137L209,146L200,146ZM218,137L236,137L236,146L218,146ZM254,137L281,137L281,146L254,146ZM290,137L299,137L299,146L290,146ZM20,146L29,146L29,155L20,155ZM38,146L56,146L56,155L38,155ZM74,146L83,146L83,155L74,155ZM92,146L110,146L110,155L92,155ZM119,146L137,146L137,155L119,155ZM155,146L164,146L164,155L155,155ZM173,146L200,146L200,155L173,155ZM218,146L227,146L227,155L218,155ZM20,155L29,155L29,164L20,164ZM38,155L83,155L83,164L38,164ZM101,155L110,155L110,164L101,164ZM119,155L128,155L128,164L119,164ZM137,155L155,155L155,164L137,164ZM173,155L182,155L182,164L173,164ZM245,155L299,155L299,164L245,164ZM29,164L38,164L38,173L29,173ZM56,164L65,164L65,173L56,173ZM74,164L101,164L101,173L74,173ZM173,164L191,164L191,173L173,173ZM200,164L209,164L209,173L200,173ZM218,164L227,164L227,173L218,173ZM245,164L272,164L272,173L245,173ZM281,164L299,164L299,173L281,173ZM11,173L29,173L29,182L11,182ZM38,173L56,173L56,182L38,182ZM65,173L83,173L83,182L65,182ZM101,173L128,173L128,182L101,182ZM146,173L155,173L155,182L146,182ZM200,173L245,173L245,182L200,182ZM263,173L272,173L272,182L263,182ZM281,173L290,173L290,182L281,182ZM299,173L308,173L308,182L299,182ZM11,182L29,182L29,191L11,191ZM47,182L56,182L56,191L47,191ZM101,182L119,182L119,191L101,191ZM137,182L146,182L146,191L137,191ZM155,182L164,182L164,191L155,191ZM173,182L209,182L209,191L173,191ZM218,182L227,182L227,191L218,191ZM236,182L245,182L245,191L236,191ZM11,191L20,191L20,200L11,200ZM29,191L38,191L38,200L29,200ZM47,191L74,191L74,200L47,200ZM92,191L119,191L119,200L92,200ZM146,191L164,191L164,200L146,200ZM191,191L218,191L218,200L191,200ZM227,191L236,191L236,200L227,200ZM254,191L263,191L263,200L254,200ZM290,191L299,191L299,200L290,200ZM11,200L65,200L65,209L11,209ZM74,200L83,200L83,209L74,209ZM92,200L101,200L101,209L92,209ZM119,200L155,200L155,209L119,209ZM173,200L182,200L182,209L173,209ZM200,200L209,200L209,209L200,209ZM218,200L227,200L227,209L218,209ZM254,200L263,200L263,209L254,209ZM272,200L290,200L290,209L272,209ZM11,209L20,209L20,218L11,218ZM29,209L47,209L47,218L29,218ZM65,209L92,209L92,218L65,218ZM101,209L110,209L110,218L101,218ZM128,209L146,209L146,218L128,218ZM164,209L173,209L173,218L164,218ZM182,209L191,209L191,218L182,218ZM209,209L245,209L245,218L209,218ZM254,209L272,209L272,218L254,218ZM281,209L290,209L290,218L281,218ZM299,209L308,209L308,218L299,218ZM11,218L20,218L20,227L11,227ZM29,218L38,218L38,227L29,227ZM83,218L92,218L92,227L83,227ZM101,218L110,218L110,227L101,227ZM119,218L137,218L137,227L119,227ZM155,218L200,218L200,227L155,227ZM218,218L227,218L227,227L218,227ZM236,218L263,218L263,227L236,227ZM272,218L281,218L281,227L272,227ZM290,218L308,218L308,227L290,227ZM11,227L20,227L20,236L11,236ZM29,227L47,227L47,236L29,236ZM65,227L74,227L74,236L65,236ZM101,227L110,227L110,236L101,236ZM119,227L128,227L128,236L119,236ZM137,227L155,227L155,236L137,236ZM173,227L182,227L182,236L173,236ZM200,227L209,227L209,236L200,236ZM227,227L272,227L272,236L227,236ZM83,236L101,236L101,245L83,245ZM155,236L164,236L164,245L155,245ZM182,236L236,236L236,245L182,245ZM263,236L290,236L290,245L263,245ZM11,245L74,245L74,254L11,254ZM83,245L128,245L128,254L83,254ZM164,245L173,245L173,254L164,254ZM182,245L191,245L191,254L182,254ZM209,245L218,245L218,254L209,254ZM227,245L236,245L236,254L227,254ZM245,245L254,245L254,254L245,254ZM263,245L272,245L272,254L263,254ZM290,245L299,245L299,254L290,254ZM11,254L20,254L20,263L11,263ZM65,254L74,254L74,263L65,263ZM92,254L101,254L101,263L92,263ZM110,254L119,254L119,263L110,263ZM137,254L146,254L146,263L137,263ZM155,254L164,254L164,263L155,263ZM182,254L218,254L218,263L182,263ZM227,254L236,254L236,263L227,263ZM263,254L281,254L281,263L263,263ZM299,254L308,254L308,263L299,263ZM11,263L20,263L20,272L11,272ZM29,263L56,263L56,272L29,272ZM65,263L74,263L74,272L65,272ZM83,263L101,263L101,272L83,272ZM110,263L119,263L119,272L110,272ZM146,263L182,263L182,272L146,272ZM191,263L200,263L200,272L191,272ZM218,263L281,263L281,272L218,272ZM299,263L308,263L308,272L299,272ZM11,272L20,272L20,281L11,281ZM29,272L56,272L56,281L29,281ZM65,272L74,272L74,281L65,281ZM83,272L92,272L92,281L83,281ZM101,272L110,272L110,281L101,281ZM119,272L146,272L146,281L119,281ZM155,272L164,272L164,281L155,281ZM182,272L218,272L218,281L182,281ZM254,272L299,272L299,281L254,281ZM11,281L20,281L20,290L11,290ZM29,281L56,281L56,290L29,290ZM65,281L74,281L74,290L65,290ZM83,281L110,281L110,290L83,290ZM128,281L146,281L146,290L128,290ZM164,281L173,281L173,290L164,290ZM182,281L191,281L191,290L182,290ZM209,281L218,281L218,290L209,290ZM245,281L272,281L272,290L245,290ZM11,290L20,290L20,299L11,299ZM65,290L74,290L74,299L65,299ZM83,290L101,290L101,299L83,299ZM119,290L137,290L137,299L119,299ZM155,290L164,290L164,299L155,299ZM182,290L227,290L227,299L182,299ZM236,290L254,290L254,299L236,299ZM263,290L281,290L281,299L263,299ZM290,290L308,290L308,299L290,299ZM11,299L74,299L74,308L11,308ZM83,299L110,299L110,308L83,308ZM119,299L128,299L128,308L119,308ZM137,299L155,299L155,308L137,308ZM173,299L182,299L182,308L173,308ZM200,299L209,299L209,308L200,308ZM227,299L236,299L236,308L227,308ZM254,299L263,299L263,308L254,308ZM272,299L299,299L299,308L272,308Z"/></svg>
